<?xml version="1.0" encoding="iso-8859-1"?>
<!-- Generator: Adobe Illustrator 19.0.0, SVG Export Plug-In . SVG Version: 6.00 Build 0)  -->
<svg version="1.1" id="Layer_1" xmlns="http://www.w3.org/2000/svg" xmlns:xlink="http://www.w3.org/1999/xlink" x="0px" y="0px"
	 viewBox="0 0 512 512" style="enable-background:new 0 0 512 512;" xml:space="preserve">
<g>
	<rect x="88.593" y="257.59" style="fill:#2D404E;" width="9.1" height="18.648"/>
	<rect x="88.593" y="257.59" style="fill:#253744;" width="3.709" height="18.648"/>
	<path style="fill:#2D404E;" d="M256,205.077v129.826c0,0,30.463-14.237,64.781-22.636c34.316-8.396,73.744-16.428,79.951-31.031
		c0.73-15.698-11.316-75.936-33.221-100.031L256,205.077z"/>
	<path style="opacity:0.5;fill:#253744;enable-background:new    ;" d="M398.984,262.709c-4.062-24.68-14.969-63.348-31.473-81.504
		l-111.512,23.872v17.762l103.709-30.145c0,0,25.922,30.217,26.488,83.448C399.525,270.381,399.048,263.303,398.984,262.709z"/>
	<path style="opacity:0.7;fill:#253744;enable-background:new    ;" d="M376.119,276.143c-11.139,3.503-67.729,13.423-87.123,18.793
		c-14.916,4.131-27.637,9.234-32.996,11.737v28.23c0,0,30.463-14.237,64.781-22.636c34.316-8.396,73.744-16.428,79.951-31.031
		c0.186-3.981-0.455-10.836-1.865-19.23C393.113,270.359,385.128,273.309,376.119,276.143z"/>
	<polygon style="fill:#2D404E;" points="256,109.151 0,144.359 0,150.326 256,205.077 512,150.326 512,144.359 	"/>
	<path style="fill:#F2B643;" d="M101.199,285.654c-0.596-4.145-3.559-9.406-3.559-9.406l-4.496-0.159l-4.498,0.159
		c0,0-2.961,5.262-3.559,9.406c-0.596,4.146-2.834,99.01-2.686,108.418c0.15,9.405,10.742,8.768,10.742,8.768
		s10.592,0.638,10.74-8.768C104.035,384.664,101.796,289.8,101.199,285.654z"/>
	<path style="fill:#253744;" d="M256,205.077v129.826c0,0-30.465-14.237-64.781-22.636c-34.318-8.396-73.746-16.428-79.953-31.031
		c-0.73-15.698,11.318-75.936,33.223-100.031L256,205.077z"/>
	<path style="fill:#F2B643;" d="M256,315.554v19.35c0,0,30.463-14.237,64.781-22.636c34.316-8.396,73.744-16.428,79.951-31.031
		c0.182-3.877-0.418-10.475-1.754-18.572c0,0,1.389,9.081-17.594,15.287c-18.986,6.206-58.414,15.332-74.842,19.349
		C290.115,301.315,264.597,310.808,256,315.554z"/>
	<polygon style="fill:#253744;" points="512,144.359 512,150.326 256,211.893 0,150.326 0,144.359 256.625,195.542 	"/>
	<ellipse style="fill:#F2B643;" cx="93.143" cy="254.584" rx="7.362" ry="5.37"/>
	<path style="opacity:0.5;fill:#253744;enable-background:new    ;" d="M399.199,264.072c0.076,0.478,0.156,0.964,0.227,1.429
		C399.355,265.036,399.275,264.55,399.199,264.072z"/>
	<path style="opacity:0.5;fill:#253744;enable-background:new    ;" d="M399.65,267.094c0.059,0.411,0.121,0.835,0.176,1.237
		C399.771,267.929,399.709,267.506,399.65,267.094z"/>
	<path style="opacity:0.5;fill:#253744;enable-background:new    ;" d="M400.023,269.912c0.045,0.357,0.094,0.729,0.133,1.076
		C400.117,270.641,400.068,270.27,400.023,269.912z"/>
	<path style="opacity:0.5;fill:#253744;enable-background:new    ;" d="M400.32,272.541c0.033,0.305,0.07,0.627,0.096,0.924
		C400.39,273.168,400.353,272.846,400.32,272.541z"/>
	<path style="opacity:0.5;fill:#253744;enable-background:new    ;" d="M396.625,286.679c-0.252,0.228-0.512,0.454-0.781,0.679
		C396.113,287.133,396.373,286.906,396.625,286.679z"/>
	<path style="opacity:0.5;fill:#253744;enable-background:new    ;" d="M400.681,277.095c0.012,0.235,0.029,0.489,0.039,0.716
		C400.711,277.584,400.693,277.33,400.681,277.095z"/>
	<path style="opacity:0.5;fill:#253744;enable-background:new    ;" d="M398,285.321c-0.311,0.339-0.637,0.672-0.982,1.002
		C397.365,285.993,397.687,285.66,398,285.321z"/>
	<path style="opacity:0.5;fill:#253744;enable-background:new    ;" d="M393.468,289.155c-0.203,0.141-0.41,0.28-0.621,0.419
		C393.058,289.436,393.265,289.296,393.468,289.155z"/>
	<path style="opacity:0.5;fill:#253744;enable-background:new    ;" d="M395.318,287.794c-0.357,0.284-0.729,0.566-1.111,0.845
		C394.589,288.36,394.961,288.078,395.318,287.794z"/>
	<path style="opacity:0.5;fill:#253744;enable-background:new    ;" d="M389.716,291.466c-0.111,0.062-0.225,0.124-0.336,0.185
		C389.492,291.59,389.605,291.528,389.716,291.466z"/>
	<path style="opacity:0.5;fill:#253744;enable-background:new    ;" d="M400.537,274.914c0.021,0.274,0.049,0.566,0.068,0.832
		C400.586,275.48,400.558,275.188,400.537,274.914z"/>
	<path style="opacity:0.5;fill:#253744;enable-background:new    ;" d="M399.962,282.724c-0.229,0.384-0.475,0.764-0.748,1.138
		C399.488,283.487,399.734,283.107,399.962,282.724z"/>
	<path style="opacity:0.5;fill:#253744;enable-background:new    ;" d="M399.078,284.035c-0.242,0.319-0.502,0.635-0.777,0.948
		C398.576,284.67,398.836,284.354,399.078,284.035z"/>
	<path style="opacity:0.5;fill:#253744;enable-background:new    ;" d="M400.732,281.236c-0.172,0.406-0.379,0.803-0.602,1.199
		C400.353,282.039,400.56,281.643,400.732,281.236z"/>
	<path style="opacity:0.5;fill:#253744;enable-background:new    ;" d="M400.752,279.079c0.002,0.185,0.012,0.391,0.012,0.566
		C400.763,279.47,400.753,279.264,400.752,279.079z"/>
	<path style="fill:#F2B643;" d="M398.978,262.664c0,0,0.002,0.019,0.006,0.045c0.076,0.464,0.145,0.911,0.215,1.363
		C399.127,263.603,399.058,263.146,398.978,262.664z"/>
	<path style="fill:#F2B643;" d="M392.847,289.574c-0.975,0.645-2.02,1.275-3.131,1.892
		C390.828,290.85,391.873,290.219,392.847,289.574z"/>
	<path style="fill:#F2B643;" d="M394.207,288.639c-0.238,0.174-0.488,0.345-0.738,0.517
		C393.716,288.983,393.968,288.812,394.207,288.639z"/>
	<path style="fill:#F2B643;" d="M397.017,286.323c-0.127,0.12-0.262,0.236-0.393,0.355
		C396.755,286.56,396.89,286.443,397.017,286.323z"/>
	<path style="fill:#F2B643;" d="M398,285.321c0.104-0.111,0.201-0.225,0.301-0.338C398.201,285.097,398.103,285.21,398,285.321z"/>
	<path style="fill:#F2B643;" d="M400.72,277.811c0.02,0.449,0.023,0.856,0.031,1.269C400.744,278.667,400.74,278.26,400.72,277.811z
		"/>
	<path style="fill:#F2B643;" d="M395.843,287.357c-0.174,0.146-0.344,0.292-0.525,0.437
		C395.498,287.649,395.671,287.504,395.843,287.357z"/>
	<path style="fill:#F2B643;" d="M399.214,283.861c-0.045,0.059-0.094,0.115-0.137,0.174
		C399.121,283.977,399.169,283.92,399.214,283.861z"/>
	<path style="fill:#F2B643;" d="M400.763,279.646c0.002,0.571-0.008,1.103-0.031,1.591
		C400.755,280.748,400.765,280.218,400.763,279.646z"/>
	<path style="fill:#F2B643;" d="M400.416,273.465c0.049,0.504,0.084,0.973,0.121,1.449
		C400.5,274.438,400.464,273.969,400.416,273.465z"/>
	<path style="fill:#F2B643;" d="M400.605,275.746c0.033,0.473,0.053,0.906,0.076,1.349
		C400.658,276.652,400.638,276.219,400.605,275.746z"/>
	<path style="fill:#F2B643;" d="M400.156,270.988c0.062,0.536,0.113,1.041,0.164,1.553
		C400.269,272.029,400.218,271.524,400.156,270.988z"/>
	<path style="fill:#F2B643;" d="M400.13,282.436c-0.055,0.096-0.109,0.192-0.168,0.288
		C400.021,282.628,400.076,282.531,400.13,282.436z"/>
	<path style="fill:#F2B643;" d="M399.425,265.501c0.08,0.546,0.152,1.064,0.225,1.593
		C399.578,266.565,399.505,266.047,399.425,265.501z"/>
	<path style="fill:#F2B643;" d="M399.826,268.331c0.072,0.543,0.133,1.059,0.197,1.581
		C399.959,269.39,399.898,268.874,399.826,268.331z"/>
	<path style="fill:#D89932;" d="M399.078,284.035c0.043-0.059,0.092-0.115,0.137-0.174c0.273-0.374,0.52-0.754,0.748-1.138
		c0.059-0.096,0.113-0.192,0.168-0.288c0.223-0.396,0.43-0.793,0.602-1.199c0.023-0.488,0.033-1.02,0.031-1.591
		c0-0.176-0.01-0.382-0.012-0.566c-0.008-0.412-0.012-0.819-0.031-1.269c-0.01-0.227-0.027-0.48-0.039-0.716
		c-0.023-0.442-0.043-0.876-0.076-1.349c-0.02-0.266-0.047-0.558-0.068-0.832c-0.037-0.477-0.072-0.945-0.121-1.449
		c-0.025-0.297-0.062-0.619-0.096-0.924c-0.051-0.512-0.102-1.017-0.164-1.553c-0.039-0.348-0.088-0.719-0.133-1.076
		c-0.064-0.522-0.125-1.038-0.197-1.581c-0.055-0.402-0.117-0.826-0.176-1.237c-0.072-0.528-0.145-1.047-0.225-1.593
		c-0.07-0.465-0.15-0.951-0.227-1.429c-0.07-0.452-0.139-0.899-0.215-1.363c0.064,0.594,0.541,7.672-12.787,13.434
		c0.059,5.575-0.156,11.4-0.713,17.472c1.371-0.64,2.67-1.294,3.896-1.964c0.111-0.061,0.225-0.122,0.336-0.185
		c1.111-0.616,2.156-1.247,3.131-1.892c0.211-0.139,0.418-0.278,0.621-0.419c0.25-0.172,0.5-0.343,0.738-0.517
		c0.383-0.278,0.754-0.561,1.111-0.845c0.182-0.145,0.352-0.29,0.525-0.437c0.27-0.225,0.529-0.451,0.781-0.679
		c0.131-0.119,0.266-0.235,0.393-0.355c0.346-0.33,0.672-0.663,0.982-1.002c0.104-0.111,0.201-0.225,0.301-0.338
		C398.576,284.67,398.836,284.354,399.078,284.035z"/>
	<path style="fill:#F2B643;" d="M256,315.554v19.35c0,0-30.465-14.237-64.781-22.636c-34.318-8.396-73.746-16.428-79.953-31.031
		c-0.18-3.877,0.42-10.475,1.754-18.572c0,0-1.389,9.081,17.596,15.287c18.982,6.206,58.412,15.332,74.842,19.349
		C221.884,301.315,247.4,310.808,256,315.554z"/>
	<path style="opacity:0.5;fill:#D89932;enable-background:new    ;" d="M256,315.554c-5.559-3.067-18.184-8.116-30.854-12.39v19.37
		C243.334,328.987,256,334.903,256,334.903V315.554z"/>
	<g style="opacity:0.7;">
		<polygon style="fill:#253744;" points="100.511,171.823 93.089,170.019 96.658,163.333 249.593,141.404 250.425,147.313 		"/>
	</g>
	<g>
		<polygon style="fill:#F2B643;" points="94.88,251.175 91.3,251.175 91.3,169.667 94.509,161.821 242.925,141.392 243.414,144.939 
			97.041,165.088 94.88,170.371 		"/>
	</g>
	<g>
		<ellipse style="fill:#253744;" cx="255.67" cy="142.534" rx="17.237" ry="7.581"/>
		<ellipse style="fill:#586A73;" cx="256" cy="140.363" rx="16.908" ry="5.409"/>
	</g>
	<path style="opacity:0.1;fill:#C6CBCB;enable-background:new    ;" d="M277.259,171.823l-120.143-3.395l102.639,19.891
		l204.084-38.204C463.839,150.115,336.535,171.637,277.259,171.823z"/>
	<path style="fill:#D89932;" d="M97.697,258.806c-1.254,0.719-2.836,1.148-4.553,1.148c-4.068,0-7.363-2.404-7.363-5.37
		c0-2.501,2.344-4.604,5.518-5.2c0,0-3.086,1.813-2.244,5.285C90.353,260.032,97.697,258.806,97.697,258.806z"/>
	<path style="fill:#D89932;" d="M88.593,372.312c-0.197-13.725-1.594-79.963,0-85.334c0.941-3.167,2.352-7.674,3.354-10.848
		l-3.301,0.117c0,0-2.961,5.262-3.559,9.406c-0.596,4.146-2.834,99.01-2.686,108.418c0.15,9.405,10.742,8.768,10.742,8.768
		s3.992,0.231,7.109-1.762C88.355,400.166,88.775,384.869,88.593,372.312z"/>
	<path style="opacity:0.3;fill:#FFFFFF;enable-background:new    ;" d="M101.941,374.447c0.01,0.428-0.816,0.795-1.848,0.819l0,0
		c-1.027,0.023-1.867-0.307-1.877-0.734l-2.037-88.704c-0.01-0.429,0.814-0.794,1.844-0.817l0,0
		c1.029-0.023,1.869,0.304,1.881,0.732L101.941,374.447z"/>
</g>
<g>
</g>
<g>
</g>
<g>
</g>
<g>
</g>
<g>
</g>
<g>
</g>
<g>
</g>
<g>
</g>
<g>
</g>
<g>
</g>
<g>
</g>
<g>
</g>
<g>
</g>
<g>
</g>
<g>
</g>
</svg>
